<svg width="45" height="45" viewBox="0 0 45 45" fill="none" xmlns="http://www.w3.org/2000/svg">
<path d="M1.78125 37.5V33.0937C1.78125 32 2.0625 31.0078 2.625 30.1172C3.1875 29.2266 3.96875 28.5625 4.96875 28.125C7.25 27.125 9.30469 26.4062 11.1328 25.9687C12.9609 25.5312 14.8438 25.3125 16.7812 25.3125C18.7188 25.3125 20.5938 25.5312 22.4062 25.9687C24.2188 26.4062 26.2656 27.125 28.5469 28.125C29.5469 28.5625 30.3359 29.2266 30.9141 30.1172C31.4922 31.0078 31.7812 32 31.7812 33.0937V37.5H1.78125ZM34.5938 37.5V33.0937C34.5938 31.125 34.0937 29.5078 33.0937 28.2422C32.0937 26.9766 30.7812 25.9531 29.1562 25.1719C31.3125 25.4219 33.3437 25.7891 35.25 26.2734C37.1562 26.7578 38.7031 27.3125 39.8906 27.9375C40.9219 28.5312 41.7344 29.2656 42.3281 30.1406C42.9219 31.0156 43.2187 32 43.2187 33.0937V37.5H34.5938ZM16.7812 22.4531C14.7188 22.4531 13.0312 21.7969 11.7188 20.4844C10.4062 19.1719 9.75 17.4844 9.75 15.4219C9.75 13.3594 10.4062 11.6719 11.7188 10.3594C13.0312 9.04688 14.7188 8.39062 16.7812 8.39062C18.8438 8.39062 20.5312 9.04688 21.8438 10.3594C23.1562 11.6719 23.8125 13.3594 23.8125 15.4219C23.8125 17.4844 23.1562 19.1719 21.8438 20.4844C20.5312 21.7969 18.8438 22.4531 16.7812 22.4531ZM33.6562 15.4219C33.6562 17.4844 33 19.1719 31.6875 20.4844C30.375 21.7969 28.6875 22.4531 26.625 22.4531C26.2812 22.4531 25.8984 22.4297 25.4766 22.3828C25.0547 22.3359 24.6719 22.25 24.3281 22.125C25.0781 21.3438 25.6484 20.3828 26.0391 19.2422C26.4297 18.1016 26.625 16.8281 26.625 15.4219C26.625 14.0156 26.4297 12.7734 26.0391 11.6953C25.6484 10.6172 25.0781 9.625 24.3281 8.71875C24.6719 8.625 25.0547 8.54688 25.4766 8.48438C25.8984 8.42188 26.2812 8.39062 26.625 8.39062C28.6875 8.39062 30.375 9.04688 31.6875 10.3594C33 11.6719 33.6562 13.3594 33.6562 15.4219ZM4.59375 34.6875H28.9688V33.0937C28.9688 32.5937 28.8203 32.1094 28.5234 31.6406C28.2266 31.1719 27.8594 30.8437 27.4219 30.6562C25.1719 29.6562 23.2813 28.9844 21.75 28.6406C20.2188 28.2969 18.5625 28.125 16.7812 28.125C15 28.125 13.3359 28.2969 11.7891 28.6406C10.2422 28.9844 8.34375 29.6562 6.09375 30.6562C5.65625 30.8437 5.29687 31.1719 5.01562 31.6406C4.73437 32.1094 4.59375 32.5937 4.59375 33.0937V34.6875ZM16.7812 19.6406C18 19.6406 19.0078 19.2422 19.8047 18.4453C20.6016 17.6484 21 16.6406 21 15.4219C21 14.2031 20.6016 13.1953 19.8047 12.3984C19.0078 11.6016 18 11.2031 16.7812 11.2031C15.5625 11.2031 14.5547 11.6016 13.7578 12.3984C12.9609 13.1953 12.5625 14.2031 12.5625 15.4219C12.5625 16.6406 12.9609 17.6484 13.7578 18.4453C14.5547 19.2422 15.5625 19.6406 16.7812 19.6406Z" fill="#5A5A5A"/>
</svg>
