<svg width="45" height="45" viewBox="0 0 45 45" fill="none" xmlns="http://www.w3.org/2000/svg">
<path d="M8.4375 39.375C7.6875 39.375 7.03125 39.0938 6.46875 38.5312C5.90625 37.9688 5.625 37.3125 5.625 36.5625V8.4375C5.625 7.6875 5.90625 7.03125 6.46875 6.46875C7.03125 5.90625 7.6875 5.625 8.4375 5.625H36.5625C37.3125 5.625 37.9688 5.90625 38.5312 6.46875C39.0938 7.03125 39.375 7.6875 39.375 8.4375V36.5625C39.375 37.3125 39.0938 37.9688 38.5312 38.5312C37.9688 39.0938 37.3125 39.375 36.5625 39.375H8.4375ZM8.4375 36.5625H21.0938V8.4375H8.4375V36.5625ZM23.9062 36.5625H36.5625V22.4531H23.9062V36.5625ZM23.9062 19.6406H36.5625V8.4375H23.9062V19.6406Z" fill="black"/>
</svg>
