<svg width="45" height="45" viewBox="0 0 45 45" fill="none" xmlns="http://www.w3.org/2000/svg">
<path d="M18.1875 41.25L17.25 35.3438C16.6562 35.125 16.0312 34.8281 15.375 34.4531C14.7188 34.0781 14.1406 33.6875 13.6406 33.2812L8.10938 35.8125L3.75 28.125L8.8125 24.4219C8.75 24.1406 8.71094 23.8203 8.69531 23.4609C8.67969 23.1016 8.67188 22.7812 8.67188 22.5C8.67188 22.2188 8.67969 21.8984 8.69531 21.5391C8.71094 21.1797 8.75 20.8594 8.8125 20.5781L3.75 16.875L8.10938 9.1875L13.6406 11.7188C14.1406 11.3125 14.7188 10.9219 15.375 10.5469C16.0312 10.1719 16.6562 9.89062 17.25 9.70312L18.1875 3.75H26.8125L27.75 9.65625C28.3438 9.875 28.9766 10.1641 29.6484 10.5234C30.3203 10.8828 30.8906 11.2812 31.3594 11.7188L36.8906 9.1875L41.25 16.875L36.1875 20.4844C36.25 20.7969 36.2891 21.1328 36.3047 21.4922C36.3203 21.8516 36.3281 22.1875 36.3281 22.5C36.3281 22.8125 36.3203 23.1406 36.3047 23.4844C36.2891 23.8281 36.25 24.1562 36.1875 24.4688L41.25 28.125L36.8906 35.8125L31.3594 33.2812C30.8594 33.6875 30.2891 34.0859 29.6484 34.4766C29.0078 34.8672 28.375 35.1562 27.75 35.3438L26.8125 41.25H18.1875ZM22.5 28.5938C24.1875 28.5938 25.625 28 26.8125 26.8125C28 25.625 28.5938 24.1875 28.5938 22.5C28.5938 20.8125 28 19.375 26.8125 18.1875C25.625 17 24.1875 16.4062 22.5 16.4062C20.8125 16.4062 19.375 17 18.1875 18.1875C17 19.375 16.4062 20.8125 16.4062 22.5C16.4062 24.1875 17 25.625 18.1875 26.8125C19.375 28 20.8125 28.5938 22.5 28.5938ZM22.5 25.7812C21.5938 25.7812 20.8203 25.4609 20.1797 24.8203C19.5391 24.1797 19.2188 23.4062 19.2188 22.5C19.2188 21.5938 19.5391 20.8203 20.1797 20.1797C20.8203 19.5391 21.5938 19.2188 22.5 19.2188C23.4062 19.2188 24.1797 19.5391 24.8203 20.1797C25.4609 20.8203 25.7812 21.5938 25.7812 22.5C25.7812 23.4062 25.4609 24.1797 24.8203 24.8203C24.1797 25.4609 23.4062 25.7812 22.5 25.7812ZM20.4375 38.4375H24.5625L25.2188 33.1875C26.25 32.9375 27.2266 32.5469 28.1484 32.0156C29.0703 31.4844 29.9062 30.8438 30.6562 30.0938L35.625 32.25L37.5 28.875L33.0938 25.6406C33.2188 25.1094 33.3203 24.5859 33.3984 24.0703C33.4766 23.5547 33.5156 23.0312 33.5156 22.5C33.5156 21.9688 33.4844 21.4453 33.4219 20.9297C33.3594 20.4141 33.25 19.8906 33.0938 19.3594L37.5 16.125L35.625 12.75L30.6562 14.9062C29.9375 14.0938 29.125 13.4141 28.2188 12.8672C27.3125 12.3203 26.3125 11.9688 25.2188 11.8125L24.5625 6.5625H20.4375L19.7812 11.8125C18.7188 12.0312 17.7266 12.4062 16.8047 12.9375C15.8828 13.4688 15.0625 14.125 14.3438 14.9062L9.375 12.75L7.5 16.125L11.9062 19.3594C11.7812 19.8906 11.6797 20.4141 11.6016 20.9297C11.5234 21.4453 11.4844 21.9688 11.4844 22.5C11.4844 23.0312 11.5234 23.5547 11.6016 24.0703C11.6797 24.5859 11.7812 25.1094 11.9062 25.6406L7.5 28.875L9.375 32.25L14.3438 30.0938C15.0938 30.8438 15.9297 31.4844 16.8516 32.0156C17.7734 32.5469 18.75 32.9375 19.7812 33.1875L20.4375 38.4375Z" fill="#5A5A5A"/>
</svg>
